<svg width="66" height="24" viewBox="0 0 66 24" fill="none" xmlns="http://www.w3.org/2000/svg">
<g filter="url(#filter0_iiin_961_44637)">
<path d="M8.08767 23.9999C3.41917 23.9999 0 20.1863 0 15.5178C0 10.9151 3.6822 7.10132 8.58083 7.10132C13.4465 7.10132 17.1616 10.7178 17.1616 15.5178V23.6054H14.0712V20.778C12.8548 22.7506 10.7178 23.9999 8.08767 23.9999ZM8.58083 20.9095C11.6054 20.9095 13.9068 18.4767 13.9068 15.5506C13.9068 12.5917 11.6054 10.1589 8.58083 10.1589C5.58904 10.1589 3.25479 12.5917 3.25479 15.5506C3.25479 18.4767 5.58904 20.9095 8.58083 20.9095Z" fill="url(#paint0_radial_961_44637)"/>
<path d="M23.5999 4.30685C22.4163 4.30685 21.4629 3.35342 21.4629 2.16987C21.4629 0.986304 22.4163 0 23.5999 0C24.7834 0 25.704 0.986304 25.704 2.16987C25.704 3.35342 24.7834 4.30685 23.5999 4.30685ZM21.9889 7.49589H25.2437V23.6054H21.9889V7.49589Z" fill="url(#paint1_radial_961_44637)"/>
<path d="M37.6469 23.9999C32.7811 23.9999 29.0332 20.1863 29.0332 15.5178C29.0332 10.8821 32.814 7.10132 37.6469 7.10132C42.5127 7.10132 46.1948 10.9151 46.1948 15.5178C46.1948 20.1863 42.4797 23.9999 37.6469 23.9999ZM37.6469 20.9095C40.6386 20.9095 42.9401 18.4767 42.9401 15.5506C42.9401 12.5917 40.6386 10.1589 37.6469 10.1589C34.6222 10.1589 32.288 12.5917 32.288 15.5506C32.288 18.4767 34.6222 20.9095 37.6469 20.9095Z" fill="url(#paint2_radial_961_44637)"/>
<path d="M57.325 10.2246C54.1688 10.2246 52.5907 12.8219 52.5907 15.8136V23.6054H49.3359V15.4848C49.3359 10.7835 52.1304 7.10132 57.325 7.10132C62.5852 7.10132 65.4455 10.7835 65.4455 15.452V23.6054H62.1907V15.8465C62.1907 12.8219 60.5469 10.2246 57.325 10.2246Z" fill="url(#paint3_radial_961_44637)"/>
</g>
<defs>
<filter id="filter0_iiin_961_44637" x="-1.536" y="0" width="70.8213" height="25.152" filterUnits="userSpaceOnUse" color-interpolation-filters="sRGB">
<feFlood flood-opacity="0" result="BackgroundImageFix"/>
<feBlend mode="normal" in="SourceGraphic" in2="BackgroundImageFix" result="shape"/>
<feColorMatrix in="SourceAlpha" type="matrix" values="0 0 0 0 0 0 0 0 0 0 0 0 0 0 0 0 0 0 127 0" result="hardAlpha"/>
<feOffset dx="2.688"/>
<feGaussianBlur stdDeviation="1.344"/>
<feComposite in2="hardAlpha" operator="arithmetic" k2="-1" k3="1"/>
<feColorMatrix type="matrix" values="0 0 0 0 1 0 0 0 0 1 0 0 0 0 1 0 0 0 0.12 0"/>
<feBlend mode="normal" in2="shape" result="effect1_innerShadow_961_44637"/>
<feColorMatrix in="SourceAlpha" type="matrix" values="0 0 0 0 0 0 0 0 0 0 0 0 0 0 0 0 0 0 127 0" result="hardAlpha"/>
<feOffset dx="3.84" dy="1.152"/>
<feGaussianBlur stdDeviation="2.19178"/>
<feComposite in2="hardAlpha" operator="arithmetic" k2="-1" k3="1"/>
<feColorMatrix type="matrix" values="0 0 0 0 1 0 0 0 0 1 0 0 0 0 1 0 0 0 0.08 0"/>
<feBlend mode="normal" in2="effect1_innerShadow_961_44637" result="effect2_innerShadow_961_44637"/>
<feColorMatrix in="SourceAlpha" type="matrix" values="0 0 0 0 0 0 0 0 0 0 0 0 0 0 0 0 0 0 127 0" result="hardAlpha"/>
<feOffset dx="-1.536"/>
<feGaussianBlur stdDeviation="1.344"/>
<feComposite in2="hardAlpha" operator="arithmetic" k2="-1" k3="1"/>
<feColorMatrix type="matrix" values="0 0 0 0 0 0 0 0 0 0 0 0 0 0 0 0 0 0 0.4 0"/>
<feBlend mode="normal" in2="effect2_innerShadow_961_44637" result="effect3_innerShadow_961_44637"/>
<feTurbulence type="fractalNoise" baseFrequency="6.6666665077209473 6.6666665077209473" stitchTiles="stitch" numOctaves="3" result="noise" seed="2501" />
<feColorMatrix in="noise" type="luminanceToAlpha" result="alphaNoise" />
<feComponentTransfer in="alphaNoise" result="coloredNoise1">
<feFuncA type="discrete" tableValues="1 1 1 1 1 1 1 1 1 1 1 1 1 1 1 1 1 1 1 1 1 1 1 1 1 1 1 1 1 1 1 1 1 1 1 1 1 1 1 1 1 1 1 1 1 1 1 1 1 1 1 0 0 0 0 0 0 0 0 0 0 0 0 0 0 0 0 0 0 0 0 0 0 0 0 0 0 0 0 0 0 0 0 0 0 0 0 0 0 0 0 0 0 0 0 0 0 0 0 0 "/>
</feComponentTransfer>
<feComposite operator="in" in2="effect3_innerShadow_961_44637" in="coloredNoise1" result="noise1Clipped" />
<feFlood flood-color="rgba(0, 0, 0, 0.2)" result="color1Flood" />
<feComposite operator="in" in2="noise1Clipped" in="color1Flood" result="color1" />
<feMerge result="effect4_noise_961_44637">
<feMergeNode in="effect3_innerShadow_961_44637" />
<feMergeNode in="color1" />
</feMerge>
</filter>
<radialGradient id="paint0_radial_961_44637" cx="0" cy="0" r="1" gradientUnits="userSpaceOnUse" gradientTransform="translate(32.736 -4.87519e-05) rotate(90) scale(27.744 45.2767)">
<stop offset="0.115385" stop-color="#73E1D0"/>
<stop offset="1" stop-color="#4CA154"/>
</radialGradient>
<radialGradient id="paint1_radial_961_44637" cx="0" cy="0" r="1" gradientUnits="userSpaceOnUse" gradientTransform="translate(32.7366 1.65367e-06) rotate(90) scale(27.744 45.2767)">
<stop offset="0.115385" stop-color="#73E1D0"/>
<stop offset="1" stop-color="#4CA154"/>
</radialGradient>
<radialGradient id="paint2_radial_961_44637" cx="0" cy="0" r="1" gradientUnits="userSpaceOnUse" gradientTransform="translate(32.7362 -4.87519e-05) rotate(90) scale(27.744 45.2767)">
<stop offset="0.115385" stop-color="#73E1D0"/>
<stop offset="1" stop-color="#4CA154"/>
</radialGradient>
<radialGradient id="paint3_radial_961_44637" cx="0" cy="0" r="1" gradientUnits="userSpaceOnUse" gradientTransform="translate(32.7355 -4.85316e-05) rotate(90) scale(27.744 45.2767)">
<stop offset="0.115385" stop-color="#73E1D0"/>
<stop offset="1" stop-color="#4CA154"/>
</radialGradient>
</defs>
</svg>
