<svg width="14" height="26" viewBox="0 0 14 26" fill="none" xmlns="http://www.w3.org/2000/svg">
<path d="M7.21467 13.168C7.00933 13.6253 6.77133 14.1713 6.50067 14.806C6.23933 15.4407 5.964 16.122 5.67467 16.85C5.39467 17.578 5.10533 18.3247 4.80667 19.09C4.508 19.8553 4.20933 20.6067 3.91067 21.344C3.62133 22.072 3.346 22.7533 3.08467 23.388C2.82333 24.032 2.58533 24.5873 2.37067 25.054C2.22133 25.3527 2.00667 25.544 1.72667 25.628C1.44667 25.7213 1.134 25.684 0.788667 25.516C0.434 25.3573 0.196 25.1427 0.0746667 24.872C-0.0373333 24.6013 -0.0233333 24.3167 0.116667 24.018C0.331333 23.5513 0.588 23.01 0.886667 22.394C1.19467 21.778 1.526 21.12 1.88067 20.42C2.24467 19.7107 2.61333 18.9967 2.98667 18.278C3.36 17.55 3.724 16.836 4.07867 16.136C4.43333 15.4267 4.76 14.7687 5.05867 14.162C5.36667 13.546 5.628 13.0047 5.84267 12.538C6.05733 12.0713 6.29533 11.5207 6.55667 10.886C6.818 10.242 7.09333 9.556 7.38267 8.828C7.672 8.09067 7.966 7.33933 8.26467 6.574C8.57267 5.80867 8.87133 5.062 9.16067 4.334C9.45 3.59667 9.72533 2.91067 9.98667 2.276C10.2573 1.632 10.4953 1.07667 10.7007 0.61C10.85 0.320666 11.0647 0.134 11.3447 0.0500001C11.6247 -0.0433331 11.9373 -0.00600028 12.2827 0.161999C12.6373 0.320666 12.8707 0.535333 12.9827 0.805999C13.104 1.07667 13.0947 1.36133 12.9547 1.66C12.74 2.12667 12.4787 2.67267 12.1707 3.298C11.872 3.92333 11.5407 4.586 11.1767 5.286C10.822 5.986 10.458 6.7 10.0847 7.428C9.71133 8.156 9.34267 8.87467 8.97867 9.584C8.624 10.284 8.29267 10.942 7.98467 11.558C7.686 12.1647 7.42933 12.7013 7.21467 13.168Z" fill="black"/>
</svg>
